<svg xmlns="http://www.w3.org/2000/svg" width="559" height="168" version="1">
  <path fill="#1ED760" d="M84 0a84 84 0 1 0 0 168A84 84 0 0 0 84 0zm38 121c-1 3-4 3-7 2a96 96 0 0 0-73-8 5 5 0 0 1-3-10c32-8 60-5 82 9 2 1 3 5 1 7zm11-23c-2 3-6 4-9 2-23-13-57-17-84-9a7 7 0 0 1-4-13c31-9 69-5 95 11 3 2 4 6 2 9zm1-23c-27-17-72-18-98-10a8 8 0 1 1-4-15c29-9 78-7 110 11a8 8 0 1 1-8 14zm94 3c-14-4-17-6-17-11s5-8 11-8c7 0 13 2 20 7h1l7-10v-1c-8-7-17-10-27-10-16 0-27 9-27 23s9 19 26 23c13 3 16 6 16 11s-5 8-12 8c-9 0-16-2-24-9h-1l-8 9v2c9 8 20 12 32 12 17 0 28-9 28-23 0-12-7-19-25-23zm63-15c-7 0-13 3-18 9v-7h-15v74l1 1h13l1-1v-23c5 5 11 8 18 8 13 0 27-10 27-30s-13-31-27-31zm12 31c0 10-6 17-15 17s-16-7-16-17 7-18 16-18 15 8 15 18zm50-31c-17 0-31 14-31 31s14 30 31 30c18 0 31-13 31-30s-13-31-31-31zm0 48c-9 0-16-7-16-17s7-17 16-17 17 7 17 17-7 17-17 17zm69-46h-15V50l-1-1h-13v16h-7-1v12l1 1h7v28c0 12 5 18 17 18l12-3v-12h-1l-8 1c-4 0-6-1-6-6V78h15l1-1V65h-1zm49 0v-2c0-5 2-8 7-8l7 2 1-1V45v-1l-11-2c-12 0-18 7-18 20v2h-7l-1 1v12l1 1h7v44l1 1h13V78h13l18 44c-2 5-4 6-7 6-2 0-5-1-7-3h-1v1l-5 10 1 1c4 2 8 3 13 3 10 0 15-4 20-16l22-58v-1h-14-1l-14 40-15-40h-23zm-29 0h-13v57l1 1h12l1-1V65h-1zm-6-26a9 9 0 1 0 0 18 9 9 0 0 0 0-18zm114 44c-6 0-10-4-10-9s4-10 10-10 9 5 9 10-4 9-9 9zm0-18c-5 0-9 4-9 9 0 4 4 8 9 8 4 0 8-4 8-8 0-5-4-9-8-9zm2 9l2 4h-2l-2-3h-2v3h-2V68h4c2 0 4 2 4 4l-2 2zm-2-4h-2v3h2l2-1-2-2z"/>
</svg>